HIERARCHY
ROOT SimulationBone
{
	OFFSET 0.000000 0.000000 0.000000
	CHANNELS 6 Xposition Yposition Zposition Zrotation Yrotation Xrotation 
	JOINT Hips
	{
		OFFSET 0.000000 0.000000 0.000000
		CHANNELS 6 Xposition Yposition Zposition Zrotation Yrotation Xrotation 
		JOINT RightUpLeg
		{
			OFFSET 0.103457 1.857818 10.548502
			CHANNELS 3 Zrotation Yrotation Xrotation
			JOINT RightLeg
			{
				OFFSET 43.500000 -0.000011 -0.000004
				CHANNELS 3 Zrotation Yrotation Xrotation
				JOINT RightFoot
				{
					OFFSET 42.372192 -0.000004 -0.000008
					CHANNELS 3 Zrotation Yrotation Xrotation
					JOINT RightToe
					{
						OFFSET 17.300014 0.000006 0.000001
						CHANNELS 3 Zrotation Yrotation Xrotation
						End Site
						{
							OFFSET 0.000000 0.000000 0.000000
						}
					}
				}
			}
		}
		JOINT LeftUpLeg
		{
			OFFSET 0.103457 1.857817 -10.548505
			CHANNELS 3 Zrotation Yrotation Xrotation
			JOINT LeftLeg
			{
				OFFSET 43.500046 -0.000004 0.000011
				CHANNELS 3 Zrotation Yrotation Xrotation
				JOINT LeftFoot
				{
					OFFSET 42.372257 0.000000 0.000015
					CHANNELS 3 Zrotation Yrotation Xrotation
					JOINT LeftToe
					{
						OFFSET 17.300003 -0.000000 0.000002
						CHANNELS 3 Zrotation Yrotation Xrotation
						End Site
						{
							OFFSET 0.000000 0.000000 0.000000
						}
					}
				}
			}
		}
		JOINT Spine
		{
			OFFSET 6.901961 -2.603721 -0.000001
			CHANNELS 3 Zrotation Yrotation Xrotation
			JOINT Spine1
			{
				OFFSET 12.588108 0.000002 -0.000001
				CHANNELS 3 Zrotation Yrotation Xrotation
				JOINT Spine2
				{
					OFFSET 12.343199 -0.000020 0.000006
					CHANNELS 3 Zrotation Yrotation Xrotation
					JOINT Neck
					{
						OFFSET 25.832905 0.000017 0.000000
						CHANNELS 3 Zrotation Yrotation Xrotation
						JOINT Head
						{
							OFFSET 11.766604 -0.000006 0.000004
							CHANNELS 3 Zrotation Yrotation Xrotation
							End Site
							{
								OFFSET 0.000000 0.000000 0.000000
							}
						}
					}
					JOINT RightShoulder
					{
						OFFSET 19.745903 -1.480350 6.000100
						CHANNELS 3 Zrotation Yrotation Xrotation
						JOINT RightArm
						{
							OFFSET 11.284130 -0.000016 -0.000016
							CHANNELS 3 Zrotation Yrotation Xrotation
							JOINT RightForeArm
							{
								OFFSET 33.000046 0.000004 0.000031
								CHANNELS 3 Zrotation Yrotation Xrotation
								JOINT RightHand
								{
									OFFSET 25.199999 0.000027 0.000001
									CHANNELS 3 Zrotation Yrotation Xrotation
									End Site
									{
										OFFSET 0.000000 0.000000 0.000000
									}
								}
							}
						}
					}
					JOINT LeftShoulder
					{
						OFFSET 19.746094 -1.480375 -6.000080
						CHANNELS 3 Zrotation Yrotation Xrotation
						JOINT LeftArm
						{
							OFFSET 11.284131 -0.000016 -0.000017
							CHANNELS 3 Zrotation Yrotation Xrotation
							JOINT LeftForeArm
							{
								OFFSET 33.000095 0.000009 0.000020
								CHANNELS 3 Zrotation Yrotation Xrotation
								JOINT LeftHand
								{
									OFFSET 25.199789 0.000132 0.000423
									CHANNELS 3 Zrotation Yrotation Xrotation
									End Site
									{
										OFFSET 0.000000 0.000000 0.000000
									}
								}
							}
						}
					}
				}
			}
		}
	}
}
MOTION
Frames: 10
Frame Time: 0.016667
260.998456 0.000000 374.510992 0.000000 -61.209192 0.000000 -0.498426 74.705780 -4.496324 97.367639 -12.399487 -175.742046 140.746538 4.735706 168.479989 -65.709212 -1.275374 4.098893 83.841083 -2.184758 3.135115 21.454555 0.003103 0.000017 171.462214 -2.756501 179.686513 -98.825815 -3.424369 6.035690 81.854550 -2.881681 5.092151 21.454545 -0.003093 -0.000002 11.382756 -1.788200 -0.821620 12.786462 -3.474385 -1.836932 12.467914 -3.485565 -1.815917 10.243439 11.097350 4.613799 -20.172291 -14.565365 11.593895 178.520395 -69.014803 0.196706 -11.430803 45.847398 -5.811005 -90.660262 -3.928606 2.650999 -9.024119 -14.170870 37.246677 -178.897408 74.434790 2.594962 -19.027354 -53.226481 0.349078 -116.454998 1.501018 -3.566249 -8.815608 2.835973 -44.169538 
262.593482 0.000000 378.050921 0.000000 -59.651078 0.000000 -0.506271 75.686151 -4.739483 97.618174 -12.392428 -177.006121 143.691221 4.890338 168.501578 -65.683056 -1.148223 4.482493 85.951404 -2.475692 3.259456 21.454554 0.003105 0.000016 166.876124 -1.858900 -179.435379 -99.333401 -3.417368 7.197762 82.212781 -3.868921 4.411247 21.454552 -0.003086 -0.000001 11.293961 -1.774577 -1.075597 12.615719 -3.421030 -2.339554 12.297288 -3.435227 -2.318858 9.777411 10.981082 4.987443 -20.026857 -14.894826 12.126034 177.630433 -69.273374 1.110157 -13.794627 46.248063 -8.737237 -91.048808 -3.602913 2.645214 -9.616741 -14.678260 37.711081 -176.943044 74.226072 4.593922 -16.666873 -54.752337 -3.175915 -111.515466 1.967408 -3.382695 -6.189915 2.228822 -46.795828 
264.167776 0.000000 381.568574 0.000000 -58.303110 0.000000 -0.549147 76.873360 -4.932623 97.789883 -12.266872 -178.081541 146.992746 5.019305 168.905100 -64.731081 -1.110484 4.739746 87.631203 -2.687723 3.271192 21.454558 0.003109 0.000017 162.555797 -0.733398 -178.653215 -98.403935 -3.322185 7.676676 81.901446 -4.316085 3.909803 21.454555 -0.003085 0.000001 11.198607 -1.703164 -1.360653 12.430616 -3.250028 -2.897783 12.112401 -3.267592 -2.878118 9.191865 10.815004 5.394109 -19.755656 -15.147761 12.644780 177.418603 -69.758693 1.318173 -15.924610 46.956081 -10.970597 -91.881022 -3.265986 2.659250 -10.078671 -15.196749 37.764859 -175.748417 74.116715 5.817023 -13.938893 -56.133624 -6.609872 -106.763096 2.519016 -3.223520 -4.074014 2.113745 -50.016757 
265.720634 0.000000 385.062942 0.000000 -57.154992 0.000000 -0.614193 78.214157 -5.086491 97.873853 -12.027561 -179.009433 150.544451 5.064306 169.591152 -63.017123 -1.145655 4.884367 88.782945 -2.823386 3.179833 21.454561 0.003113 0.000018 158.613328 0.455401 -178.039970 -96.092103 -3.095931 7.709736 81.300722 -4.434424 3.517917 21.454555 -0.003087 0.000002 11.096558 -1.579030 -1.644214 12.229324 -2.975164 -3.447436 11.911391 -2.996051 -3.429430 8.513499 10.611588 5.801387 -19.440483 -15.330046 13.128832 177.730407 -70.373433 0.983489 -17.820348 47.845503 -12.555202 -93.057246 -2.916861 2.687621 -10.395941 -15.631846 37.496472 -174.969711 74.040604 6.614669 -10.673050 -57.204139 -10.211508 -102.434486 3.076599 -3.075722 -2.637311 2.579274 -52.915406 
267.251350 0.000000 388.533012 0.000000 -56.196243 0.000000 -0.686718 79.655289 -5.210200 97.863719 -11.678615 -179.831861 154.237693 4.977094 170.454201 -60.703606 -1.232185 4.928142 89.308274 -2.888445 2.993142 21.454563 0.003115 0.000019 155.158566 1.533201 -177.641049 -92.450735 -2.676010 7.547120 80.797394 -4.428199 3.158452 21.454555 -0.003090 0.000002 10.987841 -1.407131 -1.893713 12.010811 -2.609800 -3.924380 11.693174 -2.633573 -3.908579 7.769328 10.382233 6.176704 -19.163404 -15.445899 13.557649 178.415101 -71.015195 0.265073 -19.444909 48.783502 -13.499410 -94.478078 -2.554450 2.725794 -10.557540 -15.885490 36.994277 -174.297425 73.922491 7.302969 -6.753690 -57.770428 -14.182528 -98.774739 3.559990 -2.944086 -2.047444 3.655126 -54.583012 
268.759220 0.000000 391.977775 0.000000 -55.416591 0.000000 -0.749991 81.147278 -5.309909 97.756714 -11.238968 179.411085 157.958191 4.736513 171.384538 -57.967414 -1.355882 4.876595 89.081309 -2.880350 2.753298 21.454560 0.003115 0.000019 152.294230 2.371732 -177.449214 -87.532096 -2.052400 7.410921 80.608559 -4.448114 2.821445 21.454556 -0.003092 0.000000 10.871470 -1.195849 -2.082820 11.772937 -2.173272 -4.277316 11.455555 -2.199182 -4.264147 6.999484 10.140135 6.495461 -18.997176 -15.505233 13.919988 179.312938 -71.592170 -0.669888 -20.734776 49.651160 -13.800484 -96.049377 -2.179916 2.770113 -10.556440 -15.861113 36.350763 -173.470787 73.707786 8.148900 -2.231251 -57.665200 -18.570775 -95.973821 3.902212 -2.842066 -2.322904 5.331959 -54.267964 
270.243539 0.000000 395.396219 0.000000 -54.806232 0.000000 -0.783716 82.655731 -5.383870 97.559960 -10.788432 178.689022 161.572824 4.389206 172.275498 -55.048175 -1.540985 4.709285 87.867992 -2.750248 2.645179 21.454558 0.003111 0.000018 150.098884 3.046796 -177.329661 -81.395370 -1.401723 7.342428 80.261265 -4.445154 2.757725 21.454557 -0.003090 -0.000001 10.741547 -0.967717 -2.210123 11.505309 -1.710590 -4.506013 11.188119 -1.737884 -4.495633 6.295426 9.909680 6.765334 -18.976777 -15.545526 14.240506 -179.700419 -72.058109 -1.692605 -21.612111 50.402297 -13.505916 -97.697051 -1.803417 2.817523 -10.387211 -15.477195 35.670928 -172.351804 73.440116 9.295037 2.539500 -56.930089 -23.177534 -93.984761 4.086082 -2.767850 -3.030908 7.470483 -51.761526 
271.703602 0.000000 398.787332 0.000000 -54.355992 0.000000 -0.772984 84.145153 -5.430399 97.285891 -10.386723 177.991452 164.972374 3.980367 173.058969 -52.165177 -1.794011 4.430446 85.551765 -2.491942 2.691543 21.454557 0.003103 0.000017 148.656128 3.618587 -177.095460 -74.079539 -0.918970 7.361719 79.364097 -4.395325 3.097919 21.454554 -0.003084 -0.000000 10.592389 -0.742517 -2.283021 11.198170 -1.260355 -4.627424 10.881110 -1.288380 -4.619758 5.748174 9.721202 6.996405 -19.109074 -15.601602 14.542642 -178.720501 -72.389800 -2.704973 -22.008514 51.005395 -12.671677 -99.363086 -1.435792 2.866388 -10.048486 -14.687874 35.034033 -170.899810 73.188442 10.784227 7.220019 -55.704201 -27.792829 -92.695940 4.112481 -2.712406 -3.647836 9.901368 -47.161444 
273.138703 0.000000 402.150105 0.000000 -54.057403 0.000000 -0.728222 85.560539 -5.457037 96.946379 -9.953882 177.375169 168.152468 3.438503 173.785148 -49.397727 -2.024507 4.181110 82.587628 -2.374680 2.157170 21.454558 0.003098 0.000017 148.072777 3.843199 -176.428076 -65.567124 -0.732066 7.691173 78.541833 -4.586776 3.239312 21.454551 -0.003080 0.000001 10.423717 -0.514790 -2.319368 10.851472 -0.809598 -4.676844 10.534489 -0.837924 -4.671895 5.396159 9.618502 7.179984 -19.324647 -15.669818 14.809293 -177.708599 -72.604094 -3.747612 -21.886304 51.438010 -11.321591 -101.033400 -1.081112 2.916272 -9.548016 -13.574367 34.394482 -169.342409 73.036404 12.383053 11.691312 -54.222698 -32.256028 -91.968483 4.013448 -2.673146 -3.887414 12.372633 -41.373655 
274.548139 0.000000 405.483525 0.000000 -53.902735 0.000000 -0.659190 86.843148 -5.471708 96.556822 -9.450043 176.906709 171.083157 2.732891 174.498006 -46.886584 -2.148452 4.087643 79.509927 -2.690837 0.485605 21.454556 0.003100 0.000018 148.382548 3.565895 -175.127050 -55.934628 -0.949395 8.354581 78.354020 -5.180317 2.708432 21.454550 -0.003086 0.000001 10.234736 -0.287355 -2.340681 10.464174 -0.361692 -4.697690 10.147228 -0.390156 -4.695441 5.257710 9.640324 7.295752 -19.538879 -15.731870 15.003347 -176.602396 -72.732246 -4.885422 -21.238465 51.678994 -9.479048 -102.700927 -0.740858 2.966816 -8.905428 -12.256221 33.677092 -167.888571 73.064007 13.876000 16.012134 -52.724776 -36.526391 -91.658021 3.830255 -2.646574 -3.670350 14.573197 -35.444604 
